<?xml version="1.0" encoding="iso-8859-1"?>
<svg fill="currentColor" height="800px" width="800px" version="1.1" xmlns="http://www.w3.org/2000/svg" viewBox="0 0 512 512">
<g><path d="M256,32C132.3,32,32,132.3,32,256s100.3,224,224,224s224-100.3,224-224S379.7,32,256,32z M256,448c-105.9,0-192-86.1-192-192S150.1,64,256,64s192,86.1,192,192S361.9,448,256,448z"/>
<path d="M336,208c0-35.3-22.7-64-56-64V112h-32v32c-27.4,0-56,23.6-56,56c0,32.4,24.7,48,56,64c28,14.1,56,16.2,56,40c0,12.4-10.9,24-24,24c-13.3,0-24-10.7-24-24h-32c0,35.3,22.7,64,56,64v32h32v-32c27.4,0,56-23.6,56-56C368,238.4,343.3,222.9,336,208z M248,184c0-12.4,10.9-24,24-24c13.3,0,24,10.7,24,24c0,10.1-6.7,18.9-16.5,23.1c-7.3-3.7-14.6-7.5-21.8-11.4C251.5,192.1,248,188.3,248,184z M264,312c-13.3,0-24-10.7-24-24c0-10.1,6.7-18.9,16.5-23.1c7.3,3.7,14.6,7.5,21.8,11.4C276.5,279.9,280,283.7,280,288C280,301.3,277.3,312,264,312z"/>
</g>
</svg>
