<?xml version="1.0" encoding="iso-8859-1"?>
<svg fill="currentColor" height="800px" width="800px" version="1.1" xmlns="http://www.w3.org/2000/svg" viewBox="0 0 512 512">
<g><path d="M456,48H56C25.1,48,0,73.1,0,104v80c0,30.9,25.1,56,56,56h400c30.9,0,56-25.1,56-56v-80C512,73.1,486.9,48,456,48z M56,208c-13.2,0-24-10.8-24-24v-80c0-13.2,10.8-24,24-24h400c13.2,0,24,10.8,24,24v80c0,13.2-10.8,24-24,24H56z"/>
<path d="M456,272H56c-30.9,0-56,25.1-56,56v80c0,30.9,25.1,56,56,56h400c30.9,0,56-25.1,56-56v-80C512,297.1,486.9,272,456,272z M56,432c-13.2,0-24-10.8-24-24v-80c0-13.2,10.8-24,24-24h400c13.2,0,24,10.8,24,24v80c0,13.2-10.8,24-24,24H56z"/>
</g>
</svg>
